<svg width="126" height="112" viewBox="0 0 126 112" fill="none" xmlns="http://www.w3.org/2000/svg">
<path d="M48.9261 35.7003C49.0969 34.7178 48.2179 33.9268 48.4319 32.8189C49.2403 33.578 49.5364 34.7566 50.6454 35.0962C50.7638 35.3561 50.9687 35.5977 51.2215 35.3515C51.4151 35.1646 51.1509 34.9777 50.9756 34.85C50.0465 33.5757 49.1447 32.2855 48.8646 30.4048C49.2403 30.8334 49.4589 31.0841 49.6776 31.3349C49.7709 31.3759 49.9167 31.474 49.9463 31.4466C50.0806 31.3212 50.01 31.1867 49.8962 31.075C48.7166 28.5926 49.1561 25.889 48.8213 23.0851C48.728 23.5684 48.671 23.8647 48.5549 24.4711C47.849 22.8685 47.3434 21.5532 47.3252 20.0783C47.2956 17.6255 46.4963 15.3436 45.7039 13.0663C45.0275 11.1287 44.4605 9.14773 44.2783 7.11434C44.1622 5.82866 43.5314 5.31119 42.4361 5.05132C42.1059 4.97154 41.7689 4.89859 41.4546 4.76865C41.154 4.64328 40.7259 4.54298 40.7919 4.10758C40.858 3.67218 41.2451 3.81807 41.532 3.85454C41.7711 3.88418 42.0194 3.92749 42.0216 3.59011C42.0216 3.24361 41.7825 3.03845 41.4797 2.93131C40.7009 2.65548 39.9448 2.35002 39.1865 1.50657C40.1703 1.60232 40.5073 1.29685 40.5665 0.492159C40.6029 0.00660781 41.0607 -0.250985 41.5093 0.348545C42.6205 1.84167 43.8411 3.22994 45.2712 4.44039C45.9839 5.04448 46.1069 6.0361 46.4394 6.87955C46.6147 7.32407 46.6739 7.878 47.332 7.90536L47.3138 7.88712C46.9495 8.28377 46.8903 8.60975 47.1931 9.16369C48.063 10.764 48.6665 12.4736 49.0445 14.2745C49.7732 17.7532 50.8139 21.1292 52.5855 24.2431C52.836 24.6831 53.1594 24.8244 53.6125 24.7401C54.8491 24.5076 55.9307 22.2736 55.2316 21.2272C54.6737 20.3929 54.8308 19.8595 55.5709 19.3261C56.0355 18.991 56.459 18.6126 56.4545 17.9583C56.4522 17.6301 56.6663 17.4568 56.9691 17.4887C57.9574 17.589 58.611 17.1103 59.3442 16.4811C60.3098 15.6537 62.6894 16.276 63.491 17.3679C65.4608 20.0532 65.2968 21.9749 62.8989 24.3981C62.7213 24.5759 62.6075 24.8176 62.3615 25.1846C63.2838 25.1846 64.0968 25.3328 64.8323 25.1572C67.155 24.6056 69.6258 24.6352 71.7823 23.3837C72.4996 22.9666 73.3308 22.7454 74.1756 22.7295C75.6285 22.6998 76.9834 22.3602 78.3338 21.7926C81.0527 20.6482 83.6624 21.4506 86.222 22.4878C86.3632 22.5448 86.4998 22.6087 86.6364 22.677C87.019 22.864 87.7727 22.7979 87.7067 23.2652C87.6179 23.8921 86.9051 23.174 86.5362 23.5364C86.5339 23.5638 86.5021 23.6459 86.5271 23.7029C86.6797 24.0494 87.4676 24.0858 87.1328 24.5965C86.9097 24.9338 86.452 24.5121 86.1149 24.4004C85.6504 24.2477 85.2018 24.0357 84.7577 23.8282C84.5482 23.7302 84.3387 23.5866 84.1383 23.7781C83.9334 23.9741 84.086 24.1952 84.1748 24.4004C84.2636 24.6101 84.3592 24.8176 84.4207 25.0341C84.4845 25.2575 84.5072 25.522 84.2841 25.6519C83.9607 25.8411 83.8013 25.5493 83.6601 25.3373C83.5144 25.1185 83.4256 24.8609 83.2912 24.6329C82.5853 23.4384 81.1279 22.9483 79.8936 23.541C76.4983 25.1777 72.9459 26.3768 69.2933 27.2408C68.2754 27.4801 67.3782 27.8654 66.4787 28.3213C64.9575 29.0963 63.2747 29.1989 61.6419 29.4998C60.8905 29.6366 60.3212 29.9147 59.9272 30.6123C59.613 31.1708 59.1507 31.6586 58.5905 31.9891C58.0417 32.3128 57.9779 32.9443 57.9711 33.3546C57.9643 33.7946 58.2603 34.4648 59.0664 34.3622C59.4945 34.3075 59.7245 34.7201 59.9409 35.0119C60.3485 35.559 60.7288 36.1289 61.0613 36.7238C61.8788 38.1873 63.0424 38.837 64.707 38.3492C65.438 38.1349 65.8889 38.2785 66.2236 39.0513C66.5903 39.8993 68.0226 39.9358 68.6602 39.1607C70.8122 36.5551 73.4082 34.5993 76.6669 33.594C76.8399 33.5393 77.0062 33.4048 77.2954 33.5985C74.1301 35.0392 72.1762 37.6243 70.6141 40.5307C69.7761 42.0922 69.1498 43.77 68.4303 45.3954C68.2458 45.808 68.0613 46.2229 67.8769 46.6355C66.4127 45.8695 64.9666 45.1104 63.5775 44.1712C59.4057 41.3491 55.0836 38.7481 50.8184 36.0673C50.3721 35.7869 49.9121 35.4815 49.3383 35.7368C49.2016 35.7185 49.0627 35.7003 48.9238 35.6821L48.9261 35.7003Z" fill="white"/>
<path d="M49.3247 35.7344C49.8986 35.4791 50.3585 35.7845 50.8072 36.0649C55.0746 38.7457 59.3945 41.3467 63.5663 44.1688C64.9554 45.108 66.4014 45.8671 67.8656 46.633C65.9482 52.5463 64.4908 58.61 62.0747 64.3591C61.6033 65.4806 61.009 66.5383 60.2757 67.5186C59.0893 69.1052 57.6547 69.8643 55.5392 69.8574C52.2258 69.846 49.0355 69.4562 45.9636 68.2412C42.3018 66.7959 39.3551 64.4275 37.0256 61.2543C36.4904 60.5248 36.5337 60.1806 37.4218 59.8956C38.5422 59.5355 39.6466 59.0796 40.5507 58.3091C41.1701 57.7825 41.482 57.9466 41.8532 58.5667C42.9873 60.4541 44.1281 62.3371 45.606 63.9898C47.5986 66.2169 49.7596 68.2161 52.6289 69.2693C55.8534 70.4547 57.8619 69.65 59.292 66.5247C60.6446 63.5658 61.1684 60.363 61.8515 57.2149C62.6007 53.7659 63.3682 50.326 64.5477 46.9932C64.8597 46.1133 64.7163 45.8215 63.7188 46.0426C62.5666 46.3002 61.3711 46.2865 60.2165 46.0381C59.6244 45.9104 59.251 46.0084 58.8206 46.4416C58.0851 47.1847 57.3632 48.0122 56.1221 47.8959C55.8671 47.8731 55.5824 48.1421 55.3183 48.2903C51.6452 50.3442 48.0518 52.5691 44.0052 53.8434C43.2492 54.0827 43.1285 54.7256 42.7117 55.186C40.5734 57.5591 38.2553 59.6107 34.6231 59.1001C34.8736 59.5286 35.3154 59.2232 35.5044 59.7703C33.965 60.3949 32.4257 61.0719 30.8476 61.6373C29.9071 61.9746 29.2922 62.3644 29.2649 63.5225C29.2399 64.6053 28.7457 64.8355 27.6731 64.546C26.4503 64.2177 25.4711 64.8674 24.4805 65.3849C23.7791 65.7519 23.1529 66.2671 22.3855 66.5178C21.9779 66.65 21.502 66.8005 21.2515 66.3583C20.9941 65.9023 20.837 65.2823 21.2925 64.8811C23.2827 63.1235 24.8267 60.7254 27.7551 60.2809C28.7935 60.1236 29.2512 59.1183 30.1234 58.6464C32.9084 57.1374 35.3313 54.99 38.3737 53.9095C38.5832 53.8342 38.713 53.5197 38.8633 53.3031C39.9518 51.7188 41.2543 50.3852 42.9941 49.4848C44.094 48.9149 45.2326 48.3906 46.2049 47.611C46.0319 47.0456 45.5559 47.6133 45.3191 47.2873C45.3715 47.1984 45.4079 47.0867 45.4831 47.0183C46.3188 46.2455 47.1887 45.5069 47.9925 44.7045C48.5436 44.1574 49.4545 43.6286 48.4298 42.6894C48.2704 42.5435 48.2931 42.2449 48.4161 42.0374C49.4226 40.3323 48.5345 38.6978 48.2271 37.0474C48.1041 36.3909 47.9424 35.7458 47.947 34.9639C48.3523 35.2648 48.6438 35.4791 48.933 35.6933L48.9171 35.6751C48.9057 35.9418 49.0674 36.1037 49.2587 36.2518C49.3384 36.2609 49.4203 36.2701 49.5 36.2792C49.4659 36.229 49.4317 36.1789 49.3976 36.1287C49.3702 35.9988 49.3475 35.8666 49.3247 35.7344Z" fill="white"/>
<path d="M30.481 93.0272C31.073 92.0355 31.9543 91.2924 32.765 90.5082C33.5711 89.724 33.9673 88.8418 34.1404 87.759C34.3089 86.715 34.6232 85.6937 35.1355 84.7523C35.3314 84.3944 35.632 84.1117 36.0578 84.3214C36.5428 84.5608 36.5064 85.0509 36.2741 85.402C34.9465 87.3943 35.0604 89.7423 34.6095 91.9489C34.5435 92.2681 34.4524 92.7399 34.8167 92.8721C35.2767 93.0386 35.2836 92.4914 35.427 92.2339C35.9075 91.3745 36.306 90.4672 36.9573 89.7104C37.8386 88.6846 38.7836 88.8669 39.2208 90.1686C39.4007 90.7065 39.485 91.2742 39.6558 91.8167C39.9677 92.8083 40.2182 92.8699 40.9401 92.1472C41.2088 91.8805 41.4434 91.5796 41.703 91.3038C42.8279 90.1138 43.6545 90.1549 44.6906 91.4451C45.893 92.9451 46.6217 93.2574 47.9356 92.7604C48.3911 92.5872 48.8192 92.325 49.2314 92.0583C50.4474 91.2742 51.4881 90.2711 52.5697 89.3206C53.2096 88.7575 53.0662 87.93 53.303 87.2325C53.5011 86.6443 53.3895 85.5524 54.2936 85.7393C55.1589 85.9194 54.6101 86.8426 54.5145 87.408C54.2298 89.0858 53.8495 90.7476 53.8928 92.4618C53.8996 92.7171 53.7971 93.0454 54.0955 93.173C54.4234 93.3144 54.5418 92.9679 54.6966 92.781C55.2978 92.0492 55.8534 91.281 56.4751 90.5698C57.4794 89.4209 58.142 89.3935 59.2601 90.3874C59.4309 90.5379 59.5972 90.6951 59.7611 90.8502C61.7878 92.7536 62.8718 92.8311 65.1444 91.1761C66.7088 90.0386 68.1753 88.8145 69.2593 87.1549C70.0518 85.9422 71.1858 85.0167 72.4086 84.2394C72.8481 83.959 73.3582 83.7538 73.8638 83.6262C74.3374 83.5076 74.9545 83.4757 75.0502 84.1345C75.1413 84.7682 74.5355 84.6132 74.1575 84.6998C72.7138 85.0349 71.6982 86.0722 70.7622 87.0752C69.8195 88.0827 68.9473 89.2157 68.4053 90.5333C68.3097 90.6541 68.2459 90.7954 68.3735 90.9117C68.4076 90.9436 68.5534 90.8524 68.6467 90.816C70.0882 90.0249 71.3384 88.9763 72.5088 87.8388C74.0596 86.332 75.5694 84.7819 77.111 83.2637C77.4777 82.9035 77.8671 82.3656 78.4569 82.8078C78.9806 83.2022 78.6322 83.7219 78.4409 84.155C77.2591 86.8244 75.8313 89.3867 74.9432 92.1837C74.6221 93.1958 74.3033 94.2103 74.1553 95.2657C74.112 95.5712 74.0505 95.9268 74.301 96.1274C74.6266 96.3895 74.9591 96.1091 75.2324 95.9405C76.018 95.4572 76.5873 94.7368 77.1885 94.053C79.288 91.6571 81.046 89.0128 82.8086 86.3685C83.0568 85.9969 83.4098 85.6846 83.7468 85.3814C84.0565 85.1056 84.4254 85.003 84.7533 85.3609C85.0789 85.7188 84.8034 85.9855 84.5666 86.2363C83.8128 87.0319 83.0796 87.8388 82.5171 88.7917C82.0708 89.5462 82.0412 90.1663 82.8314 90.7544C84.3275 91.8691 84.8763 93.5241 85.268 95.2566C85.3363 95.5552 85.2429 96.0225 85.7006 96.0841C86.0422 96.1297 86.1925 95.7786 86.3861 95.5529C88.0143 93.6495 89.6402 91.746 91.2706 89.8471C91.4938 89.5873 91.7215 89.3365 91.8103 88.9923C92.6233 85.81 93.5524 82.6551 93.9691 79.3816C94.0898 78.4401 93.475 78.4264 92.8282 78.4469C90.4395 78.5199 88.0689 78.798 85.7029 79.1149C84.0519 79.336 82.4169 79.6916 80.7409 79.6848C80.1534 79.6825 79.575 79.6004 79.2539 79.0374C78.9009 78.4173 79.1765 77.8543 79.5454 77.3459C80.5041 76.0237 81.8271 75.1347 83.2185 74.3505C85.7894 72.9053 88.5494 71.9957 91.4551 71.5261C93.9418 71.1249 95.2808 72.2396 95.3924 74.7814C95.4994 77.2228 95.4948 77.1157 97.9269 77.0245C101.261 76.8968 104.601 76.947 107.94 76.931C108.366 76.9287 108.862 76.9789 108.828 77.5533C108.794 78.1232 108.281 78.1027 107.865 78.0959C104.107 78.0366 100.357 78.1985 96.6015 78.2783C95.5768 78.2988 95.1806 78.5632 95.0166 79.6118C94.2515 84.5517 92.8761 89.3525 91.6054 94.1783C91.0475 96.2961 90.7742 98.4913 90.3734 100.65C90.3461 100.798 90.3712 100.965 90.3142 101.099C90.1548 101.487 90.2095 102.189 89.5946 102.059C89.0208 101.936 89.2052 101.295 89.2804 100.88C89.7404 98.3477 90.2322 95.8196 90.7218 93.2916C90.7651 93.0682 90.8471 92.8539 90.5898 92.5302C89.4489 93.5287 88.5676 94.7505 87.5884 95.8721C86.3747 97.2603 85.4797 98.7056 85.4775 100.728C85.4752 102.414 84.8057 104.065 83.7946 105.499C83.5282 105.877 83.2344 106.226 82.8131 106.427C81.8863 106.866 81.2442 106.454 81.2328 105.426C81.2237 104.648 81.4263 103.917 81.7634 103.231C82.3304 102.073 82.886 100.905 83.5282 99.7884C84.8717 97.4518 84.1544 93.4648 82.0708 91.7232C81.4491 91.2035 81.0506 91.1853 80.5132 91.8691C79.3677 93.3326 78.1403 94.73 76.9334 96.1456C76.5622 96.5833 76.1114 96.9389 75.5831 97.1714C74.9158 97.4655 74.1757 97.7846 73.5381 97.2786C72.8664 96.7452 72.7502 95.9291 72.9324 95.0993C73.3901 93.018 74.0756 91.0097 74.909 89.0493C75.1618 88.4566 75.3963 87.8571 75.6377 87.2598C75.7493 87.1367 75.8108 86.9931 75.681 86.8677C75.6491 86.8381 75.4988 86.9293 75.4032 86.9657C73.4789 88.5409 71.7801 90.3897 69.6601 91.7301C69.1158 92.0743 68.5943 92.4618 67.9704 92.6487C67.5605 92.7718 67.014 92.8607 66.8705 92.3889C66.5654 91.3813 66.1373 91.8828 65.6841 92.1951C62.8945 94.1214 61.4599 94.0233 58.9527 91.746C57.8278 90.7225 57.7936 90.7271 56.7917 91.9512C56.1677 92.7126 55.562 93.4922 54.9175 94.2353C54.5395 94.6707 54.0704 95.0628 53.4419 94.8508C52.7997 94.6343 52.7269 94.0074 52.6494 93.4489C52.588 93.0021 52.6267 92.5416 52.6062 92.0857C52.5948 91.8327 52.72 91.5044 52.4399 91.3608C52.1416 91.208 51.9777 91.534 51.7818 91.6868C50.5612 92.6396 49.3908 93.654 47.8263 94.0666C46.2004 94.4952 45.0413 93.8957 44.0781 92.6373C43.2287 91.5272 43.0875 91.5477 42.1447 92.6145C41.5322 93.3053 41.0266 94.3402 39.9199 94.1008C38.7631 93.8501 38.7085 92.6875 38.4375 91.7506C38.335 91.4018 38.3646 90.8638 37.9593 90.7954C37.4606 90.7111 37.3626 91.2924 37.1622 91.6229C36.6499 92.4618 36.1944 93.3372 35.698 94.1875C35.3997 94.7004 35.008 95.1426 34.3408 94.9876C33.7032 94.8394 33.685 94.2262 33.5347 93.727C33.3639 93.1639 33.7852 92.2065 33.2432 92.0811C32.6192 91.9375 32.2686 92.879 31.7858 93.3349C31.6492 93.4648 31.5216 93.6062 31.3896 93.7429C31.0753 93.5013 30.7793 93.2642 30.481 93.0272ZM94.2583 75.3536C94.2196 73.2267 93.6594 72.5314 92.0722 72.7343C88.8432 73.1492 85.8213 74.1773 83.0614 75.9257C82.2962 76.409 81.5402 76.9242 80.9322 77.6126C80.7637 77.8018 80.5246 78.0138 80.7067 78.3033C80.8456 78.5267 81.1075 78.4697 81.3284 78.4447C82.0799 78.3626 82.8336 78.2965 83.5783 78.1802C86.5295 77.7266 89.4922 77.3755 92.4684 77.1681C94.2856 77.0427 94.2902 77.1111 94.2583 75.3536ZM82.4829 105.043C83.4917 104.01 83.6853 102.966 83.8242 101.902C83.0978 102.731 82.6788 103.686 82.4829 105.043Z" fill="white"/>
<path d="M30.4809 93.0272C30.7769 93.2643 31.0752 93.5014 31.3713 93.7385C30.2418 95.0674 29.1464 96.4284 27.9714 97.7163C26.9102 98.8766 26.325 100.174 26.1269 101.753C25.8126 104.247 25.0908 106.65 23.9203 108.893C23.5491 109.607 23.0959 110.268 22.4401 110.746C21.5907 111.366 20.9007 111.082 20.714 110.051C20.6252 109.554 20.7322 109.075 20.8757 108.594C21.6772 105.927 22.7544 103.379 24.2596 101.033C24.9928 99.891 25.487 98.7193 25.5804 97.3402C25.758 94.7278 25.9948 92.1199 25.9675 89.4984C25.9652 89.2841 26.0176 89.0311 25.6919 88.8601C25.1477 89.1747 24.8403 89.7537 24.4326 90.2302C23.5878 91.2127 22.7179 92.1655 21.5702 92.8038C20.0969 93.6245 19.1723 93.3053 18.7169 91.7005C18.4482 90.7522 18.1521 90.7043 17.4553 91.297C15.9251 92.6009 14.4016 93.9163 12.8076 95.1381C10.5144 96.898 9.23466 99.2322 8.40576 101.959C7.72488 104.199 6.93014 106.433 5.51601 108.367C5.11066 108.92 4.70305 109.468 4.12692 109.857C3.65098 110.179 3.15228 110.268 2.63763 109.946C2.12299 109.625 1.93853 109.107 2.05012 108.567C2.17992 107.943 2.40308 107.327 2.67179 106.746C3.93336 104.006 5.61392 101.526 7.50627 99.1867C8.25775 98.2589 8.76556 97.2467 9.12763 96.1001C10.4051 92.0493 11.6257 87.9802 13.1104 83.9978C13.4953 84.0024 13.8801 84.0069 14.2627 84.0115C13.0786 87.7363 11.8921 91.4612 10.708 95.186C10.7945 95.2361 10.8811 95.2886 10.9676 95.3387C13.1993 93.123 15.8157 91.3791 18.1499 89.2978C18.8991 88.6299 19.1359 88.8146 19.3818 89.5851C19.5094 89.9817 19.5868 90.392 19.7029 90.7932C20.0764 92.0972 20.3724 92.2111 21.4951 91.3996C22.8022 90.4536 23.7586 89.1725 24.7241 87.9073C25.0224 87.5152 25.2866 87.098 25.5917 86.7105C25.8286 86.4073 26.1109 86.1429 26.555 86.2569C27.0127 86.3754 27.122 86.7584 27.1357 87.1391C27.1676 88.1238 27.1562 89.1086 27.1562 90.0934C27.1584 92.2841 27.1562 94.4725 27.1562 96.6791C28.1968 95.5348 29.34 94.281 30.4809 93.0272ZM24.5533 102.921C23.5218 105.025 22.3262 107.069 22.0234 109.452C23.6607 107.596 24.1321 105.285 24.5966 102.968C24.6171 102.95 24.6399 102.932 24.6604 102.914C24.6444 102.898 24.6308 102.88 24.6148 102.864C24.5943 102.882 24.5738 102.9 24.5533 102.921ZM7.07816 101.817C5.47729 103.607 4.30682 105.649 3.36633 107.833C3.24792 108.107 3.02703 108.469 3.32307 108.661C3.69653 108.9 3.93563 108.485 4.12919 108.239C5.62076 106.345 6.45193 104.133 7.07816 101.817Z" fill="white"/>
<path d="M37.5243 20.2538C36.9937 22.2257 36.3675 24.1793 35.9508 26.1762C34.5025 33.1198 35.0854 39.9836 36.9436 46.7722C37.3831 48.3793 37.9228 49.9614 38.483 51.532C38.7335 52.2364 38.5855 52.7356 37.9866 53.0821C36.807 53.766 35.6047 54.4065 34.4091 55.0608C33.7874 55.4027 33.7055 54.8716 33.5711 54.5023C32.8675 52.5715 32.3893 50.5746 32.1342 48.5412C30.884 38.5726 32.7399 29.1488 37.2078 20.2014C37.3125 20.2219 37.4196 20.2379 37.5243 20.2538Z" fill="white"/>
<path d="M125.075 13.4902C124.19 16.6292 122.687 19.4399 120.599 21.927C116.281 27.0743 110.531 29.6867 104.148 31.1342C98.1591 32.4928 92.063 32.6661 85.9579 32.7276C84.2727 32.7436 82.5876 32.7208 80.8843 32.7071C82.9702 32.413 85.0561 32.1304 87.1397 31.8272C94.1945 30.7968 101.188 29.4564 107.887 26.9603C113.031 25.0454 117.852 22.5242 121.646 18.3891C123.01 16.9073 124.051 15.209 125.075 13.4902Z" fill="white"/>
<path d="M83.4553 37.517C84.1749 37.5626 84.8923 37.6219 85.6118 37.6515C86.4476 37.6857 87.215 37.7267 87.6385 36.6781C87.946 35.9213 88.8773 35.8917 89.5491 36.0353C90.9382 36.3294 92.1588 35.8985 93.409 35.4608C93.7984 35.3241 94.2151 35.2739 94.6136 35.1599C95.2489 34.9776 95.7294 35.0801 95.9708 35.7777C96.1894 36.4137 96.2122 36.979 95.5404 37.3552C93.3611 38.5793 91.2206 39.9471 88.6018 39.9357C86.0126 39.9243 83.6717 41.0025 81.1964 41.4926C78.926 41.9417 76.7695 42.7441 74.7314 43.8611C74.4764 44.0002 74.128 44.146 73.8752 44.0822C73.0053 43.8634 72.247 44.0799 71.491 44.4789C71.2268 44.6179 70.867 44.7091 70.6416 44.4492C70.4526 44.2327 70.6302 43.9409 70.7349 43.6992C71.0355 43.004 71.3794 42.3224 71.6413 41.6134C72.0557 40.4919 72.7161 39.8194 74.0141 40.0223C74.317 40.0702 74.7405 40.1705 74.6859 39.5276C74.6722 39.368 75.1937 39.1332 75.492 38.9782C77.9992 37.6834 80.6886 37.3939 83.4553 37.517ZM76.0636 40.0018C76.1296 39.9858 76.2457 39.979 76.2503 39.9493C76.2845 39.7898 76.1455 39.8194 76.0636 39.824C76.0044 39.8262 75.9474 39.8764 75.8882 39.906C75.9474 39.9379 76.0044 39.9698 76.0636 40.0018Z" fill="white"/>
<path d="M48.2432 7.21686C48.924 6.19333 50.0421 5.74425 51.0396 5.16752C55.8672 2.37275 61.0683 1.34694 66.5655 2.29297C72.2038 3.26407 77.291 5.63027 82.0094 8.82625C85.2157 10.9987 88.2489 13.39 91.1045 16.0046C91.2366 16.1255 91.355 16.2645 91.6396 16.5631C90.9178 16.4856 90.5557 16.1528 90.164 15.9203C84.4209 12.5328 78.7507 9.00405 72.5932 6.38937C68.4532 4.63182 64.1903 3.36665 59.6155 3.51482C56.0243 3.63108 52.6746 4.511 49.6209 6.44636C49.1768 6.72903 48.694 6.95015 48.2295 7.2009C48.2295 7.20318 48.2432 7.21686 48.2432 7.21686Z" fill="white"/>
<path d="M103.704 96.8067C102.524 96.8364 101.992 96.1388 101.766 95.1768C101.579 94.3858 101.288 94.5477 100.899 94.9945C100.056 95.961 99.2293 96.9412 98.3799 97.8987C97.9746 98.3546 97.4827 98.7125 96.9499 99.0111C95.4105 99.8705 94.2241 99.3462 94.0487 97.5818C93.7458 94.55 94.6704 91.7369 95.8682 89.0037C96.0139 88.6709 96.3282 88.4019 96.6698 88.5136C97.091 88.6504 96.9726 89.0904 96.8747 89.4027C96.5901 90.3054 96.2895 91.2058 95.9502 92.0903C95.333 93.7019 95.1235 95.3752 95.1327 97.0848C95.1349 97.5088 95.1372 97.9762 95.579 98.1768C96.0185 98.3774 96.3919 98.0582 96.6971 97.7983C98.323 96.4124 99.5481 94.6685 100.921 93.0545C102.545 91.1488 103.711 88.892 105.533 87.1436C105.92 86.7743 106.293 86.3891 106.844 86.2887C107.143 86.234 107.48 86.1998 107.625 86.5577C107.744 86.8495 107.575 87.0547 107.327 87.2143C105.385 88.4475 104.346 90.3806 103.362 92.357C103.262 92.5599 103.153 92.7628 103.085 92.9793C102.832 93.7908 102.568 94.7118 103.258 95.3341C103.991 95.9929 104.672 95.2133 105.268 94.8417C107.498 93.4512 109.42 91.6663 111.38 89.9338C111.608 89.7332 111.831 89.5258 112.082 89.3571C112.355 89.1724 112.685 89.1679 112.931 89.3776C113.25 89.6511 113.018 89.9726 112.829 90.1732C112.337 90.6952 111.793 91.1693 111.269 91.6617C109.47 93.3555 107.555 94.901 105.448 96.2004C104.895 96.54 104.323 96.8387 103.704 96.8067Z" fill="white"/>
<path d="M10.8971 81.9872C10.5601 81.896 10.2208 81.8048 9.88379 81.7159C11.5871 79.6324 13.2859 77.5465 14.9961 75.4676C15.3536 75.0322 15.8204 74.6857 16.3761 74.9957C16.9522 75.3148 16.7905 75.903 16.6675 76.4273C16.055 79.0146 15.1213 81.4993 14.2674 84.0114C13.8825 84.0069 13.4977 84.0023 13.1151 83.9978C13.6457 81.8595 14.5953 79.8375 14.8982 77.6035C13.3132 78.8619 12.2953 80.5989 10.8971 81.9872Z" fill="white"/>
<path d="M47.5417 100.983C47.5417 101.651 47.5485 102.317 47.5394 102.984C47.5349 103.247 47.5508 103.552 47.1637 103.559C46.8039 103.566 46.7265 103.294 46.7242 103.016C46.7151 101.879 46.7128 100.741 46.731 99.6038C46.7333 99.4329 46.8062 99.1912 46.9314 99.1092C47.1728 98.9519 47.3368 99.2049 47.4893 99.3554C48.1087 99.9686 48.7167 100.595 49.3361 101.206C49.491 101.359 49.6436 101.592 49.9032 101.496C50.165 101.4 50.1286 101.129 50.1423 100.91C50.1741 100.418 50.1696 99.9252 50.2128 99.4351C50.2333 99.1981 50.3654 98.9861 50.6523 99.0271C50.8778 99.059 50.9415 99.2573 50.9415 99.4534C50.9484 100.705 50.9894 101.959 50.9324 103.208C50.9006 103.889 50.4975 103.543 50.2607 103.317C49.4432 102.535 48.6484 101.731 47.8446 100.933C47.7421 100.951 47.6419 100.967 47.5417 100.983Z" fill="white"/>
<path d="M72.5292 102.499C72.2924 102.601 72.2992 102.802 72.2764 102.982C72.2332 103.297 72.1853 103.63 71.7549 103.547C71.3929 103.479 71.4748 103.142 71.4703 102.896C71.4566 101.95 71.443 101.003 71.468 100.06C71.4794 99.6403 71.2858 99.0636 71.9189 98.9291C72.6499 98.7718 73.3649 98.9017 73.9183 99.4511C74.3373 99.8682 74.4876 100.529 74.1004 100.894C73.3012 101.649 73.3034 102.289 73.9934 103.053C74.1141 103.185 74.2143 103.399 74.0207 103.55C73.8135 103.709 73.5949 103.641 73.4082 103.472C73.0803 103.178 72.9732 102.674 72.5292 102.499Z" fill="white"/>
<path d="M32.9221 102.952C33.0041 102.946 33.1589 102.909 33.3047 102.93C33.5961 102.973 34.0447 102.515 34.1586 103.064C34.2702 103.609 33.7601 103.723 33.3479 103.803C32.2184 104.024 31.0411 103.532 30.4855 102.599C29.923 101.653 29.9822 100.709 30.6039 99.8181C31.2187 98.9359 32.4758 98.546 33.5688 98.8675C33.858 98.9518 34.2383 99.0476 34.1996 99.41C34.1427 99.9412 33.7009 99.7155 33.3889 99.7018C33.1999 99.6927 33.0132 99.6403 32.8242 99.6403C31.8268 99.638 30.991 100.367 30.9591 101.256C30.9273 102.2 31.7562 102.943 32.9221 102.952Z" fill="white"/>
<path d="M39.1228 101.318C39.1228 101.054 39.1228 100.787 39.1228 100.523C39.1274 98.9405 39.7536 98.4732 41.2952 98.8881C41.5275 98.9496 41.7484 99.0203 41.7621 99.2961C41.7826 99.6745 41.4865 99.6928 41.2201 99.7201C41.0311 99.7384 40.8421 99.7338 40.6531 99.7498C40.3821 99.7725 40.1065 99.8067 40.0906 100.169C40.0724 100.527 40.3206 100.609 40.6053 100.637C40.7943 100.655 40.9833 100.655 41.1723 100.675C41.4342 100.703 41.7484 100.705 41.7643 101.063C41.7848 101.496 41.4273 101.494 41.1267 101.528C41.0516 101.537 40.9764 101.542 40.899 101.542C40.3935 101.542 39.9972 101.646 40.0223 102.291C40.0451 102.898 40.4618 102.891 40.8922 102.927C41.2064 102.955 41.7142 102.811 41.737 103.26C41.7666 103.787 41.2338 103.712 40.8762 103.739C39.1729 103.867 39.1228 103.794 39.1228 101.318Z" fill="white"/>
<path d="M63.7007 101.266C63.7007 101.001 63.6984 100.735 63.7007 100.47C63.7076 98.9428 64.3224 98.4915 65.8231 98.8949C66.0986 98.9702 66.3582 99.0682 66.3195 99.3987C66.2853 99.6814 66.0166 99.6973 65.7889 99.7156C65.5999 99.7315 65.4109 99.7293 65.2219 99.7452C64.9486 99.768 64.6754 99.809 64.6571 100.167C64.6389 100.52 64.8871 100.607 65.1718 100.637C65.2856 100.65 65.3995 100.648 65.5111 100.662C65.8367 100.7 66.2967 100.63 66.2648 101.12C66.2352 101.585 65.7775 101.521 65.4542 101.526C64.6936 101.539 64.3884 101.888 64.6662 102.611C64.8188 103.01 65.2447 102.877 65.568 102.923C65.8504 102.964 66.2808 102.859 66.2944 103.269C66.3104 103.744 65.8527 103.696 65.527 103.73C63.9262 103.901 63.7075 103.698 63.703 102.059C63.7007 101.797 63.7007 101.53 63.7007 101.266Z" fill="white"/>
<path d="M57.3064 98.8425C57.7095 98.8699 58.0624 98.8357 58.379 98.9292C58.8139 99.0568 58.9118 99.5355 58.5133 99.6335C57.5592 99.8706 57.8142 100.559 57.7823 101.149C57.7504 101.751 57.7709 102.355 57.7573 102.957C57.7504 103.267 57.7208 103.595 57.2836 103.564C56.917 103.536 56.9215 103.233 56.9147 102.973C56.8988 102.333 56.9147 101.692 56.8897 101.051C56.8669 100.488 57.0718 99.8524 56.1724 99.6449C55.7237 99.5424 55.8422 99.0842 56.2543 98.9474C56.5982 98.8357 56.9944 98.8699 57.3064 98.8425Z" fill="white"/>
<path d="M98.0363 84.1208C98.4212 84.155 98.6853 84.367 98.699 84.7569C98.7127 85.1695 98.5191 85.5137 98.0705 85.5707C97.6538 85.6231 97.4397 85.3724 97.4169 84.9666C97.3919 84.5221 97.6151 84.2531 98.0363 84.1208Z" fill="white"/>
<path d="M37.5243 20.2538C37.4195 20.2378 37.3125 20.2219 37.2078 20.2036C37.629 19.2371 38.1619 18.339 38.8565 17.532C38.6196 18.5418 38.1004 19.4104 37.5243 20.2538Z" fill="white"/>
<path d="M39.2891 16.6271C39.3528 16.5428 39.4166 16.4562 39.4803 16.3718C39.5259 16.4106 39.617 16.4676 39.6101 16.4812C39.5646 16.577 39.5008 16.6636 39.4439 16.7525C39.3961 16.716 39.3505 16.6773 39.2891 16.6271Z" fill="white"/>
<path d="M47.7602 7.41992C47.7374 7.70031 47.537 7.80517 47.3093 7.88724L47.3275 7.90547C47.364 7.64104 47.5507 7.52022 47.7784 7.44044L47.7602 7.41992Z" fill="white"/>
<path d="M39.9701 15.6946C39.9792 15.7219 39.9906 15.747 39.9997 15.7744C39.9632 15.7584 39.9268 15.7425 39.8904 15.7288C39.9177 15.7174 39.9428 15.706 39.9701 15.6946Z" fill="white"/>
<path d="M47.7763 7.43792C47.881 7.25784 48.0404 7.19173 48.2408 7.2168L48.2272 7.20312C48.1224 7.38549 47.9653 7.45616 47.7581 7.41968C47.7603 7.41968 47.7763 7.43792 47.7763 7.43792Z" fill="white"/>
<path d="M50.9733 34.8501C51.1486 34.9778 51.4128 35.1624 51.2192 35.3516C50.9664 35.5955 50.7638 35.3562 50.6431 35.0963C50.7546 35.0119 50.864 34.9299 50.9733 34.8501Z" fill="white"/>
<path d="M49.254 36.2564C49.0627 36.1105 48.901 35.9464 48.9124 35.6797C49.0513 35.6979 49.188 35.7162 49.3269 35.7344C49.3497 35.8666 49.3724 35.9988 49.3952 36.131C49.3451 36.1721 49.2996 36.2131 49.254 36.2564Z" fill="white"/>
<path d="M49.8941 31.0728C50.008 31.1845 50.0786 31.319 49.9442 31.4443C49.9146 31.4717 49.7689 31.3737 49.6755 31.3326C49.7484 31.2483 49.8213 31.1617 49.8941 31.0728Z" fill="white"/>
<path d="M49.3931 36.1311C49.4272 36.1813 49.4614 36.2314 49.4955 36.2816C49.4158 36.2724 49.3361 36.2633 49.2542 36.2542C49.2997 36.2132 49.3452 36.1721 49.3931 36.1311Z" fill="white"/>
<path d="M83.8217 101.902C83.6851 102.968 83.4915 104.013 82.4805 105.043L83.8217 101.902Z" fill="white"/>
<path d="M75.3896 86.9659C75.4853 86.9294 75.6379 86.8383 75.6675 86.8679C75.7973 86.9955 75.7358 87.1392 75.6242 87.26C75.5468 87.1619 75.4694 87.0639 75.3896 86.9659Z" fill="white"/>
<path d="M68.6398 90.8183C68.5465 90.8525 68.4007 90.9437 68.3666 90.9141C68.2391 90.7955 68.3028 90.6565 68.3985 90.5356C68.4804 90.6291 68.5601 90.7226 68.6398 90.8183Z" fill="white"/>
<path d="M24.5535 102.921L24.6019 102.972L24.5535 102.921Z" fill="white"/>
<path d="M24.5535 102.921C24.574 102.9 24.5945 102.882 24.615 102.861C24.6309 102.877 24.6446 102.896 24.6605 102.911C24.64 102.93 24.6172 102.948 24.599 102.968C24.6013 102.971 24.5535 102.921 24.5535 102.921Z" fill="white"/>
<path d="M76.0612 40.0018C76.002 39.9699 75.9473 39.938 75.8904 39.906C75.9496 39.8764 76.0065 39.8263 76.0657 39.824C76.1477 39.8217 76.2843 39.7921 76.2525 39.9493C76.2456 39.979 76.1295 39.9858 76.0612 40.0018Z" fill="white"/>
<path d="M5.65258 79.2744C5.30873 79.1787 4.96715 79.0829 4.62329 78.9895C5.62298 77.4644 6.75019 76.0534 8.25086 74.9888C9.02511 74.4394 9.85173 73.9721 10.8378 73.9448C11.5778 73.9242 12.0765 74.2525 12.1859 75.0207C12.2246 75.292 12.113 75.5541 11.8693 75.7069C11.6074 75.871 11.3319 75.8186 11.1771 75.5633C10.7922 74.9341 10.3595 75.2396 9.91777 75.4561C8.56284 76.124 7.5677 77.2068 6.60445 78.3284C6.31297 78.6658 6.10574 79.0943 5.65258 79.2744Z" fill="white"/>
<path d="M10.897 81.9872C8.55381 85.0875 5.99652 87.978 2.82666 90.269C2.58073 90.4468 2.32568 90.6132 2.05697 90.7545C0.995799 91.3153 0.312641 91.003 0.0621501 89.8153C-0.131411 88.8898 0.166901 88.0053 0.412838 87.1345C1.26679 84.1392 2.81755 81.4948 4.62337 78.9873C4.96723 79.083 5.3088 79.1788 5.65266 79.2723C5.64355 79.7236 5.34068 80.0336 5.11069 80.3756C3.84001 82.2653 2.7629 84.2623 1.92489 86.3823C1.67668 87.0114 1.48084 87.6725 1.3647 88.3381C1.29183 88.7508 1.10966 89.332 1.5947 89.5737C2.02281 89.788 2.32796 89.2933 2.64449 89.0539C5.41811 86.9636 7.57006 84.26 9.88369 81.716C10.223 81.8049 10.56 81.8961 10.897 81.9872Z" fill="white"/>
</svg>