<svg width="160" height="160" viewBox="0 0 160 160" fill="none" xmlns="http://www.w3.org/2000/svg">
<g clip-path="url(#clip0_181_8032)">
<path d="M80 1C35.8862 1 0 36.8862 0 81C0 125.114 35.8862 161 80 161C124.114 161 160 125.114 160 81C160 36.8862 124.114 1 80 1Z" fill="white"/>
<path d="M120.547 64.0469L77.2131 107.379C75.9131 108.679 74.2065 109.334 72.5 109.334C70.7935 109.334 69.0869 108.679 67.7869 107.379L46.1206 85.7131C43.5132 83.1069 43.5132 78.8931 46.1206 76.2869C48.7268 73.6794 52.9395 73.6794 55.5469 76.2869L72.5 93.24L111.121 54.6206C113.727 52.0132 117.939 52.0132 120.547 54.6206C123.153 57.2268 123.153 61.4395 120.547 64.0469Z" fill="url(#paint0_linear_181_8032)"/>
</g>
<defs>
<linearGradient id="paint0_linear_181_8032" x1="49.8341" y1="52.665" x2="84.5064" y2="120.121" gradientUnits="userSpaceOnUse">
<stop stop-color="#4F14A0"/>
<stop offset="1" stop-color="#8066FF"/>
</linearGradient>
<clipPath id="clip0_181_8032">
<rect width="160" height="160" fill="white"/>
</clipPath>
</defs>
</svg>
