<svg width="201" height="179" viewBox="0 0 201 179" fill="none" xmlns="http://www.w3.org/2000/svg">
<path d="M17.5052 131.706C13.741 136.686 9.63294 141.33 4.54081 145.01C4.14574 145.296 3.73603 145.563 3.30437 145.79C1.59967 146.691 0.502234 146.189 0.0998393 144.281C-0.211102 142.795 0.268113 141.374 0.663192 139.975C2.03499 135.163 4.52618 130.915 7.42708 126.887C7.97946 127.041 8.52818 127.195 9.08056 127.345C9.06593 128.07 8.5794 128.568 8.20992 129.117C6.16869 132.153 4.43839 135.361 3.09219 138.766C2.69346 139.777 2.37886 140.839 2.19229 141.908C2.07523 142.571 1.78258 143.505 2.56176 143.893C3.24949 144.237 3.73968 143.443 4.24816 143.058C8.70377 139.7 12.1607 135.357 15.8774 131.27C16.4224 131.413 16.9638 131.56 17.5052 131.706Z" fill="url(#paint0_linear_181_4339)"/>
<path d="M9.08024 127.348C8.52786 127.195 7.97914 127.041 7.42676 126.891C9.03268 124.441 10.8435 122.174 13.2542 120.464C14.4979 119.581 15.8258 118.831 17.4098 118.787C18.5987 118.754 19.3998 119.281 19.5754 120.515C19.6376 120.951 19.4584 121.372 19.0669 121.617C18.6463 121.881 18.2036 121.797 17.9549 121.387C17.3366 120.376 16.6416 120.867 15.9319 121.215C13.7553 122.287 12.1567 124.027 10.6093 125.829C10.1411 126.371 9.8082 127.059 9.08024 127.348Z" fill="url(#paint1_linear_181_4339)"/>
<path d="M78.596 57.3498C78.8704 55.7715 77.4584 54.5007 77.8022 52.721C79.1009 53.9405 79.5764 55.8337 81.3579 56.3793C81.5482 56.7968 81.8774 57.185 82.2834 56.7895C82.5944 56.4892 82.17 56.1889 81.8884 55.9838C80.3958 53.9368 78.9472 51.8641 78.4973 48.843C79.1009 49.5315 79.452 49.9343 79.8032 50.3371C79.9532 50.403 80.1873 50.5605 80.2349 50.5165C80.4507 50.3151 80.3373 50.0991 80.1544 49.9196C78.2595 45.9317 78.9655 41.5886 78.4278 37.0844C78.2778 37.8607 78.1863 38.3368 77.9998 39.3109C76.8657 36.7365 76.0536 34.6236 76.0244 32.2543C75.9768 28.314 74.6928 24.6484 73.4198 20.99C72.3333 17.8774 71.4224 14.6951 71.1298 11.4286C70.9432 9.36329 69.9299 8.53202 68.1704 8.11456C67.6399 7.98639 67.0985 7.8692 66.5937 7.66047C66.1108 7.45906 65.4231 7.29794 65.5292 6.5985C65.6353 5.89906 66.2572 6.13343 66.7181 6.19202C67.1022 6.23963 67.5009 6.30921 67.5046 5.76723C67.5046 5.21061 67.1205 4.88104 66.6339 4.70892C65.3829 4.26583 64.1684 3.77512 62.9502 2.42019C64.5305 2.57399 65.0719 2.08329 65.167 0.790615C65.2256 0.0106149 65.9608 -0.403188 66.6815 0.559911C68.4667 2.9585 70.4274 5.18864 72.7247 7.13315C73.8697 8.10357 74.0673 9.69653 74.6014 11.0515C74.883 11.7655 74.9781 12.6554 76.0353 12.6993L76.0061 12.67C75.4208 13.3072 75.3257 13.8309 75.8122 14.7208C77.2096 17.2915 78.179 20.0379 78.7863 22.9309C79.9569 28.5191 81.6286 33.9424 84.4747 38.9447C84.8771 39.6515 85.3965 39.8785 86.1245 39.743C88.1108 39.3695 89.8485 35.7808 88.7254 34.0999C87.8292 32.7596 88.0816 31.9027 89.2705 31.0458C90.0167 30.5075 90.6972 29.8996 90.6898 28.8486C90.6862 28.3213 91.03 28.043 91.5166 28.0943C93.1042 28.2554 94.1541 27.4864 95.332 26.4757C96.8831 25.1464 100.706 26.1461 101.993 27.9002C105.158 32.214 104.894 35.301 101.042 39.1937C100.757 39.4793 100.574 39.8675 100.179 40.4571C101.661 40.4571 102.967 40.6951 104.148 40.4131C107.879 39.5269 111.848 39.5746 115.313 37.5641C116.465 36.894 117.8 36.5388 119.157 36.5131C121.491 36.4655 123.668 35.9199 125.837 35.0081C130.205 33.1698 134.397 34.4588 138.509 36.125C138.736 36.2165 138.955 36.3191 139.175 36.4289C139.789 36.7292 141 36.623 140.894 37.3737C140.751 38.3807 139.606 37.2272 139.014 37.8095C139.01 37.8534 138.959 37.9853 138.999 38.0768C139.244 38.6334 140.51 38.692 139.972 39.5123C139.614 40.0543 138.878 39.3768 138.337 39.1974C137.591 38.952 136.87 38.6115 136.157 38.2782C135.82 38.1207 135.484 37.89 135.162 38.1976C134.833 38.5126 135.078 38.8678 135.22 39.1974C135.363 39.5343 135.517 39.8675 135.615 40.2154C135.718 40.5743 135.754 40.9991 135.396 41.2078C134.876 41.5117 134.62 41.043 134.394 40.7024C134.159 40.3509 134.017 39.9371 133.801 39.5709C132.667 37.652 130.326 36.8647 128.343 37.8168C122.889 40.4461 117.182 42.3723 111.314 43.7602C109.679 44.1447 108.238 44.7636 106.793 45.496C104.349 46.741 101.646 46.9058 99.0231 47.3892C97.8159 47.6089 96.9014 48.0557 96.2685 49.1762C95.7637 50.0734 95.0211 50.8571 94.1212 51.3881C93.2396 51.9081 93.1371 52.9224 93.1262 53.5816C93.1152 54.2884 93.5907 55.365 94.8857 55.2002C95.5735 55.1123 95.9429 55.7751 96.2904 56.2438C96.9453 57.1227 97.5562 58.0382 98.0903 58.994C99.4035 61.345 101.273 62.3886 103.947 61.605C105.121 61.2607 105.845 61.4914 106.383 62.7329C106.972 64.0951 109.273 64.1537 110.297 62.9086C113.754 58.723 117.925 55.581 123.159 53.9661C123.437 53.8782 123.705 53.6622 124.169 53.9734C119.084 56.2878 115.946 60.4405 113.436 65.1095C112.09 67.6179 111.084 70.3131 109.928 72.9241C109.632 73.5869 109.335 74.2534 109.039 74.9162C106.687 73.6858 104.364 72.4664 102.132 70.9576C95.4308 66.4241 88.4876 62.2458 81.636 57.9393C80.919 57.4889 80.18 56.9982 79.2582 57.4084C79.0387 57.3791 78.8155 57.3498 78.5924 57.3205L78.596 57.3498Z" fill="url(#paint2_linear_181_4339)"/>
<path d="M79.2365 57.4047C80.1583 56.9946 80.8973 57.4853 81.6179 57.9357C88.4733 62.2422 95.4128 66.4205 102.114 70.954C104.346 72.4628 106.669 73.6822 109.021 74.9126C105.941 84.4118 103.6 94.1526 99.7184 103.388C98.9611 105.19 98.0064 106.889 96.8284 108.464C94.9226 111.012 92.6179 112.232 89.2195 112.221C83.8969 112.202 78.7719 111.576 73.8371 109.624C67.9548 107.303 63.2212 103.498 59.4789 98.4005C58.6192 97.2287 58.6887 96.6757 60.1154 96.218C61.9152 95.6394 63.6894 94.907 65.1417 93.6692C66.1367 92.8233 66.6379 93.087 67.2341 94.083C69.0559 97.1152 70.8886 100.14 73.2627 102.795C76.4636 106.373 79.9352 109.584 84.5444 111.276C89.7243 113.18 92.9508 111.888 95.2481 106.867C97.4211 102.114 98.2624 96.9687 99.3599 91.9115C100.563 86.3709 101.796 80.845 103.691 75.4912C104.192 74.0777 103.962 73.609 102.36 73.9642C100.509 74.378 98.588 74.356 96.7333 73.9568C95.7822 73.7518 95.1823 73.9092 94.4909 74.605C93.3093 75.7988 92.1497 77.1281 90.156 76.9413C89.7463 76.9047 89.289 77.3368 88.8647 77.5749C82.9641 80.8743 77.1916 84.4484 70.6911 86.4954C69.4766 86.8799 69.2827 87.9126 68.6133 88.6523C65.1783 92.4644 61.4543 95.7602 55.6196 94.9399C56.022 95.6284 56.7316 95.1377 57.0353 96.0166C54.5624 97.0199 52.0895 98.1075 49.5544 99.0157C48.0436 99.5577 47.0559 100.184 47.012 102.044C46.9717 103.784 46.1779 104.153 44.4549 103.688C42.4905 103.161 40.9175 104.205 39.3262 105.036C38.1995 105.626 37.1935 106.453 35.9607 106.856C35.3059 107.068 34.5414 107.31 34.139 106.6C33.7256 105.867 33.4732 104.871 34.2048 104.227C37.402 101.403 39.8823 97.5509 44.5866 96.8368C46.2547 96.5842 46.99 94.9692 48.3911 94.2112C52.865 91.787 56.7572 88.3374 61.6445 86.6016C61.9811 86.4808 62.1896 85.9754 62.431 85.6275C64.1796 83.0825 66.272 80.9402 69.0669 79.4937C70.8337 78.5783 72.6628 77.736 74.2248 76.4836C73.9468 75.5754 73.1823 76.4873 72.8018 75.9636C72.886 75.8208 72.9445 75.6413 73.0652 75.5315C74.4077 74.2901 75.8051 73.1036 77.0965 71.8146C77.9817 70.9357 79.445 70.0861 77.7988 68.5774C77.5428 68.343 77.5793 67.8633 77.7769 67.5301C79.3938 64.7909 77.9671 62.1653 77.4733 59.514C77.2757 58.4594 77.016 57.423 77.0233 56.167C77.6745 56.6504 78.1427 56.9946 78.6073 57.3388L78.5817 57.3095C78.5634 57.738 78.8231 57.998 79.1304 58.236C79.2584 58.2507 79.3901 58.2653 79.5182 58.2799C79.4633 58.1994 79.4084 58.1188 79.3535 58.0383C79.3096 57.8295 79.2731 57.6171 79.2365 57.4047Z" fill="url(#paint3_linear_181_4339)"/>
<path d="M48.9653 149.441C49.9164 147.848 51.3321 146.654 52.6344 145.394C53.9294 144.135 54.5659 142.718 54.844 140.978C55.1147 139.301 55.6195 137.66 56.4426 136.148C56.7572 135.573 57.24 135.119 57.9241 135.456C58.7033 135.84 58.6448 136.628 58.2716 137.192C56.1389 140.392 56.3218 144.164 55.5975 147.709C55.4914 148.221 55.3451 148.98 55.9304 149.192C56.6694 149.459 56.6803 148.58 56.9108 148.167C57.6827 146.786 58.3228 145.329 59.3691 144.113C60.7848 142.465 62.3029 142.758 63.0052 144.849C63.2942 145.713 63.4296 146.625 63.704 147.496C64.2051 149.089 64.6075 149.188 65.7671 148.027C66.1988 147.599 66.5756 147.116 66.9926 146.672C68.7997 144.761 70.1276 144.827 71.7921 146.9C73.7236 149.309 74.8942 149.811 77.0049 149.012C77.7366 148.734 78.4243 148.313 79.0864 147.885C81.0399 146.625 82.7116 145.014 84.4492 143.487C85.4772 142.582 85.2467 141.253 85.6272 140.132C85.9454 139.187 85.7662 137.433 87.2184 137.734C88.6085 138.023 87.7269 139.506 87.5733 140.414C87.116 143.109 86.5051 145.779 86.5746 148.533C86.5856 148.943 86.421 149.47 86.9002 149.675C87.427 149.902 87.6172 149.346 87.8659 149.045C88.8317 147.87 89.7243 146.636 90.7229 145.493C92.3362 143.648 93.4007 143.604 95.1968 145.2C95.4712 145.442 95.7382 145.695 96.0016 145.944C99.2574 149.002 100.999 149.126 104.649 146.467C107.163 144.64 109.518 142.674 111.26 140.008C112.533 138.06 114.354 136.573 116.319 135.324C117.025 134.874 117.844 134.544 118.656 134.339C119.417 134.149 120.409 134.097 120.562 135.156C120.709 136.174 119.736 135.925 119.128 136.064C116.809 136.602 115.178 138.268 113.674 139.88C112.16 141.498 110.759 143.318 109.888 145.435C109.734 145.629 109.632 145.856 109.837 146.043C109.892 146.094 110.126 145.947 110.276 145.889C112.591 144.618 114.6 142.934 116.48 141.106C118.971 138.686 121.396 136.196 123.873 133.757C124.462 133.178 125.087 132.314 126.035 133.024C126.876 133.658 126.317 134.493 126.009 135.189C124.111 139.477 121.817 143.593 120.39 148.086C119.875 149.712 119.362 151.341 119.125 153.037C119.055 153.528 118.956 154.099 119.359 154.421C119.882 154.842 120.416 154.392 120.855 154.121C122.117 153.345 123.032 152.187 123.997 151.089C127.37 147.24 130.194 142.992 133.026 138.744C133.424 138.147 133.991 137.646 134.533 137.159C135.03 136.716 135.623 136.551 136.15 137.126C136.673 137.701 136.23 138.129 135.85 138.532C134.639 139.81 133.461 141.106 132.557 142.637C131.84 143.849 131.793 144.845 133.062 145.79C135.466 147.581 136.347 150.239 136.976 153.022C137.086 153.502 136.936 154.253 137.671 154.352C138.22 154.425 138.462 153.861 138.773 153.498C141.388 150.441 144 147.383 146.619 144.332C146.978 143.915 147.344 143.512 147.486 142.959C148.792 137.847 150.285 132.779 150.954 127.52C151.148 126.008 150.16 125.986 149.121 126.019C145.284 126.136 141.476 126.583 137.675 127.092C135.023 127.447 132.396 128.018 129.704 128.007C128.76 128.004 127.831 127.872 127.315 126.967C126.748 125.971 127.191 125.067 127.784 124.25C129.324 122.126 131.449 120.698 133.684 119.438C137.814 117.117 142.248 115.656 146.916 114.901C150.91 114.257 153.061 116.047 153.24 120.131C153.412 124.052 153.405 123.88 157.312 123.734C162.667 123.529 168.034 123.609 173.397 123.584C174.081 123.58 174.878 123.661 174.823 124.583C174.769 125.499 173.946 125.466 173.276 125.455C167.24 125.36 161.215 125.62 155.183 125.748C153.537 125.781 152.9 126.206 152.637 127.89C151.408 135.826 149.198 143.538 147.157 151.29C146.261 154.692 145.822 158.219 145.178 161.687C145.134 161.925 145.174 162.192 145.083 162.408C144.827 163.031 144.915 164.158 143.927 163.95C143.005 163.752 143.301 162.723 143.422 162.056C144.161 157.988 144.951 153.927 145.738 149.866C145.807 149.507 145.939 149.163 145.525 148.643C143.693 150.247 142.277 152.209 140.704 154.011C138.754 156.241 137.317 158.563 137.313 161.811C137.309 164.521 136.234 167.172 134.61 169.476C134.182 170.083 133.71 170.644 133.033 170.966C131.544 171.673 130.512 171.01 130.494 169.358C130.48 168.11 130.805 166.934 131.347 165.832C132.257 163.972 133.15 162.097 134.182 160.302C136.34 156.549 135.188 150.144 131.84 147.346C130.842 146.511 130.202 146.482 129.338 147.581C127.498 149.932 125.526 152.176 123.588 154.451C122.991 155.154 122.267 155.725 121.418 156.098C120.347 156.571 119.158 157.083 118.133 156.271C117.054 155.414 116.868 154.103 117.16 152.77C117.896 149.426 118.997 146.2 120.336 143.051C120.742 142.099 121.118 141.136 121.506 140.176C121.685 139.978 121.784 139.748 121.576 139.546C121.524 139.499 121.283 139.645 121.129 139.704C118.038 142.234 115.309 145.204 111.904 147.357C111.029 147.91 110.192 148.533 109.189 148.833C108.531 149.031 107.653 149.174 107.422 148.416C106.932 146.797 106.244 147.603 105.516 148.104C101.035 151.199 98.7306 151.041 94.703 147.383C92.8959 145.739 92.841 145.746 91.2314 147.712C90.2291 148.936 89.256 150.188 88.2208 151.382C87.6135 152.081 86.8599 152.711 85.8503 152.371C84.8187 152.023 84.7016 151.016 84.5773 150.118C84.4785 149.401 84.5407 148.661 84.5078 147.929C84.4895 147.522 84.6907 146.995 84.2407 146.764C83.7615 146.519 83.4981 147.042 83.1835 147.288C81.2228 148.818 79.3425 150.448 76.8293 151.111C74.2174 151.799 72.3554 150.836 70.8081 148.815C69.4436 147.031 69.2168 147.064 67.7023 148.778C66.7183 149.888 65.9062 151.55 64.1283 151.166C62.27 150.763 62.1822 148.895 61.7469 147.39C61.5822 146.83 61.6298 145.966 60.9786 145.856C60.1775 145.72 60.0202 146.654 59.6983 147.185C58.8752 148.533 58.1436 149.939 57.3461 151.305C56.8669 152.129 56.2377 152.839 55.1659 152.59C54.1416 152.352 54.1123 151.367 53.8709 150.565C53.5965 149.661 54.2733 148.123 53.4026 147.921C52.4003 147.691 51.837 149.203 51.0614 149.935C50.842 150.144 50.6371 150.371 50.4249 150.591C49.9201 150.203 49.4445 149.822 48.9653 149.441ZM151.419 121.05C151.357 117.633 150.457 116.516 147.907 116.842C142.72 117.509 137.865 119.16 133.432 121.969C132.203 122.745 130.988 123.573 130.011 124.679C129.741 124.983 129.356 125.323 129.649 125.788C129.872 126.147 130.293 126.056 130.648 126.015C131.855 125.883 133.066 125.777 134.262 125.591C139.003 124.862 143.762 124.298 148.543 123.965C151.463 123.763 151.47 123.873 151.419 121.05ZM132.502 168.743C134.123 167.084 134.434 165.407 134.657 163.697C133.49 165.03 132.817 166.564 132.502 168.743Z" fill="url(#paint4_linear_181_4339)"/>
<path d="M48.9653 149.441C49.4408 149.822 49.92 150.203 50.3956 150.584C48.5812 152.719 46.8216 154.905 44.934 156.974C43.2293 158.838 42.2892 160.921 41.9709 163.459C41.4661 167.465 40.3065 171.325 38.4262 174.928C37.8299 176.075 37.1019 177.137 36.0484 177.906C34.6839 178.902 33.5755 178.444 33.2755 176.789C33.1329 175.99 33.3048 175.221 33.5353 174.449C34.8229 170.164 36.5532 166.07 38.9713 162.302C40.1492 160.467 40.943 158.585 41.093 156.37C41.3783 152.173 41.7588 147.984 41.7149 143.772C41.7112 143.428 41.7953 143.022 41.2722 142.747C40.3979 143.252 39.9041 144.183 39.2493 144.948C37.8921 146.526 36.4947 148.057 34.651 149.082C32.2842 150.401 30.799 149.888 30.0674 147.31C29.6357 145.786 29.1601 145.71 28.0408 146.662C25.5825 148.756 23.1352 150.869 20.5745 152.832C16.8908 155.659 14.8349 159.409 13.5033 163.789C12.4095 167.388 11.1329 170.977 8.86115 174.083C8.21001 174.972 7.5552 175.851 6.62969 176.477C5.86514 176.994 5.06401 177.137 4.23727 176.62C3.41054 176.104 3.11423 175.273 3.29347 174.405C3.50199 173.401 3.86049 172.413 4.29215 171.479C6.31875 167.077 9.01845 163.093 12.0584 159.336C13.2655 157.845 14.0813 156.219 14.663 154.377C16.7152 147.87 18.6759 141.333 21.061 134.936C21.6793 134.943 22.2975 134.951 22.912 134.958C21.0098 140.942 19.1039 146.925 17.2017 152.909C17.3407 152.99 17.4797 153.074 17.6187 153.154C21.2037 149.595 25.4069 146.793 29.1565 143.45C30.36 142.377 30.7405 142.674 31.1355 143.912C31.3404 144.549 31.4648 145.208 31.6513 145.852C32.2513 147.947 32.7268 148.13 34.5303 146.826C36.63 145.307 38.1665 143.249 39.7175 141.216C40.1967 140.586 40.6211 139.916 41.1113 139.294C41.4917 138.807 41.9453 138.382 42.6587 138.565C43.3939 138.755 43.5695 139.371 43.5915 139.982C43.6427 141.564 43.6244 143.146 43.6244 144.728C43.6281 148.247 43.6244 151.763 43.6244 155.308C45.2962 153.469 47.1326 151.455 48.9653 149.441ZM39.4432 165.334C37.786 168.714 35.8655 171.999 35.379 175.826C38.0092 172.845 38.7664 169.132 39.5127 165.411C39.5456 165.382 39.5822 165.352 39.6151 165.323C39.5895 165.297 39.5675 165.268 39.5419 165.243C39.509 165.272 39.4761 165.301 39.4432 165.334ZM11.3706 163.562C8.79897 166.436 6.91869 169.717 5.40788 173.226C5.21765 173.665 4.86281 174.247 5.33837 174.555C5.93831 174.939 6.32241 174.273 6.63335 173.877C9.02943 170.834 10.3646 167.282 11.3706 163.562Z" fill="url(#paint5_linear_181_4339)"/>
<path d="M60.28 32.5361C59.4276 35.7037 58.4217 38.842 57.7522 42.0499C55.4256 53.2043 56.3621 64.2305 59.3472 75.1358C60.0532 77.7175 60.9202 80.2589 61.8201 82.782C62.2225 83.9136 61.9847 84.7155 61.0226 85.2722C59.1277 86.3708 57.1962 87.3998 55.2757 88.4508C54.277 89 54.1453 88.1468 53.9295 87.5536C52.7991 84.4519 52.0309 81.244 51.6212 77.9775C49.6129 61.9637 52.5942 46.8251 59.7715 32.4519C59.9398 32.4849 60.1117 32.5105 60.28 32.5361Z" fill="url(#paint6_linear_181_4339)"/>
<path d="M200.924 21.6711C199.501 26.7137 197.087 31.2289 193.732 35.2241C186.797 43.4928 177.56 47.6895 167.306 50.0148C157.685 52.1973 147.892 52.4757 138.085 52.5745C135.378 52.6002 132.671 52.5635 129.935 52.5416C133.285 52.0692 136.636 51.6151 139.983 51.128C151.316 49.4728 162.55 47.3196 173.313 43.3097C181.576 40.2337 189.321 36.1835 195.415 29.5407C197.606 27.1604 199.278 24.4323 200.924 21.6711Z" fill="url(#paint7_linear_181_4339)"/>
<path d="M134.065 60.2682C135.221 60.3415 136.373 60.4367 137.529 60.4843C138.871 60.5392 140.104 60.6051 140.785 58.9206C141.279 57.7048 142.775 57.6572 143.854 57.8879C146.085 58.3603 148.046 57.6682 150.054 56.9651C150.68 56.7454 151.349 56.6648 151.99 56.4817C153.01 56.1888 153.782 56.3536 154.17 57.4741C154.521 58.4958 154.558 59.404 153.478 60.0082C149.978 61.9747 146.539 64.1719 142.332 64.1536C138.173 64.1353 134.412 65.8674 130.436 66.6547C126.789 67.3761 123.324 68.6651 120.05 70.4595C119.641 70.6829 119.081 70.9172 118.675 70.8147C117.278 70.4632 116.059 70.811 114.845 71.4519C114.421 71.6753 113.843 71.8217 113.48 71.4043C113.177 71.0564 113.462 70.5877 113.63 70.1995C114.113 69.0826 114.666 67.9877 115.086 66.8488C115.752 65.0471 116.813 63.9668 118.898 64.2927C119.385 64.3696 120.065 64.5308 119.977 63.4981C119.955 63.2417 120.793 62.8646 121.272 62.6155C125.3 60.5355 129.62 60.0705 134.065 60.2682ZM122.19 64.2598C122.296 64.2341 122.483 64.2232 122.49 64.1755C122.545 63.9192 122.322 63.9668 122.19 63.9741C122.095 63.9778 122.004 64.0584 121.909 64.106C122.004 64.1572 122.095 64.2085 122.19 64.2598Z" fill="url(#paint8_linear_181_4339)"/>
<path d="M77.4985 11.5934C78.5923 9.94913 80.3884 9.22772 81.9907 8.30124C89.7459 3.81167 98.1011 2.16378 106.932 3.6835C115.989 5.2435 124.162 9.04462 131.741 14.1787C136.892 17.6686 141.765 21.51 146.352 25.7103C146.564 25.9043 146.754 26.1277 147.212 26.6074C146.052 26.4829 145.47 25.9483 144.841 25.5748C135.615 20.1331 126.507 14.4643 116.615 10.2641C109.964 7.44068 103.116 5.40829 95.7672 5.64632C89.9984 5.83308 84.6172 7.2466 79.7117 10.3556C78.9983 10.8097 78.2228 11.1649 77.4766 11.5677C77.4766 11.5714 77.4985 11.5934 77.4985 11.5934Z" fill="url(#paint9_linear_181_4339)"/>
<path d="M166.592 155.513C164.697 155.56 163.841 154.44 163.479 152.894C163.179 151.624 162.711 151.884 162.086 152.601C160.732 154.154 159.404 155.729 158.04 157.267C157.389 157.999 156.598 158.574 155.742 159.054C153.269 160.434 151.364 159.592 151.082 156.758C150.595 151.887 152.081 147.368 154.005 142.978C154.239 142.443 154.744 142.011 155.292 142.19C155.969 142.41 155.779 143.117 155.622 143.619C155.164 145.069 154.682 146.515 154.136 147.936C153.145 150.525 152.809 153.213 152.823 155.959C152.827 156.641 152.831 157.391 153.54 157.713C154.246 158.036 154.846 157.523 155.336 157.106C157.948 154.879 159.916 152.078 162.122 149.485C164.73 146.424 166.603 142.798 169.53 139.99C170.152 139.396 170.752 138.777 171.637 138.616C172.116 138.528 172.658 138.473 172.892 139.048C173.082 139.517 172.811 139.847 172.413 140.103C169.292 142.084 167.624 145.19 166.044 148.364C165.883 148.69 165.707 149.016 165.597 149.364C165.191 150.668 164.767 152.147 165.875 153.147C167.053 154.205 168.147 152.953 169.106 152.356C172.687 150.122 175.774 147.255 178.924 144.472C179.29 144.15 179.648 143.816 180.051 143.545C180.49 143.249 181.02 143.241 181.415 143.578C181.927 144.018 181.554 144.534 181.251 144.856C180.46 145.695 179.586 146.457 178.745 147.248C175.855 149.968 172.778 152.451 169.395 154.539C168.506 155.084 167.587 155.564 166.592 155.513Z" fill="url(#paint10_linear_181_4339)"/>
<path d="M17.5053 131.706C16.9639 131.56 16.4188 131.413 15.8774 131.27C18.6137 127.923 21.3427 124.573 24.09 121.233C24.6643 120.533 25.4142 119.977 26.3068 120.475C27.2323 120.988 26.9726 121.932 26.775 122.775C25.791 126.931 24.2912 130.923 22.9194 134.958C22.3011 134.951 21.6829 134.943 21.0683 134.936C21.9207 131.501 23.4461 128.253 23.9327 124.664C21.3866 126.686 19.7514 129.476 17.5053 131.706Z" fill="url(#paint11_linear_181_4339)"/>
<path d="M76.3717 162.221C76.3717 163.294 76.3827 164.363 76.3681 165.436C76.3607 165.858 76.3864 166.348 75.7645 166.359C75.1865 166.37 75.0621 165.934 75.0585 165.488C75.0438 163.66 75.0402 161.833 75.0694 160.006C75.0731 159.731 75.1901 159.343 75.3913 159.211C75.7791 158.958 76.0425 159.365 76.2876 159.607C77.2826 160.592 78.2593 161.599 79.2543 162.58C79.5031 162.825 79.7482 163.199 80.1652 163.045C80.5859 162.891 80.5274 162.456 80.5493 162.104C80.6005 161.313 80.5932 160.522 80.6627 159.735C80.6956 159.354 80.9078 159.013 81.3687 159.079C81.7309 159.131 81.8333 159.449 81.8333 159.764C81.8443 161.774 81.9101 163.789 81.8187 165.795C81.7675 166.89 81.12 166.334 80.7395 165.971C79.4263 164.715 78.1496 163.422 76.8583 162.141C76.6936 162.17 76.5327 162.196 76.3717 162.221Z" fill="url(#paint12_linear_181_4339)"/>
<path d="M116.513 164.656C116.132 164.821 116.143 165.143 116.106 165.433C116.037 165.938 115.96 166.473 115.269 166.341C114.687 166.231 114.819 165.689 114.811 165.294C114.79 163.774 114.768 162.254 114.808 160.738C114.826 160.064 114.515 159.138 115.532 158.922C116.706 158.669 117.855 158.878 118.744 159.76C119.417 160.431 119.659 161.493 119.037 162.078C117.753 163.291 117.756 164.32 118.865 165.546C119.059 165.759 119.22 166.103 118.909 166.345C118.576 166.601 118.225 166.491 117.925 166.22C117.398 165.748 117.226 164.938 116.513 164.656Z" fill="url(#paint13_linear_181_4339)"/>
<path d="M52.887 165.385C53.0187 165.374 53.2675 165.316 53.5016 165.349C53.9698 165.418 54.6905 164.682 54.8734 165.565C55.0526 166.44 54.2332 166.623 53.5711 166.751C51.7567 167.106 49.8654 166.316 48.9728 164.818C48.0693 163.298 48.1644 161.782 49.163 160.35C50.1507 158.933 52.17 158.307 53.9259 158.823C54.3905 158.959 55.0014 159.112 54.9392 159.695C54.8478 160.548 54.1381 160.185 53.6369 160.163C53.3333 160.149 53.0333 160.065 52.7297 160.065C51.1275 160.061 49.7849 161.233 49.7337 162.661C49.6825 164.177 51.0141 165.371 52.887 165.385Z" fill="url(#paint14_linear_181_4339)"/>
<path d="M62.8477 162.76C62.8477 162.335 62.8477 161.906 62.8477 161.482C62.855 158.94 63.861 158.189 66.3375 158.856C66.7106 158.955 67.0655 159.068 67.0874 159.511C67.1204 160.119 66.6448 160.149 66.2168 160.193C65.9132 160.222 65.6095 160.215 65.3059 160.24C64.8706 160.277 64.428 160.332 64.4024 160.914C64.3731 161.489 64.7718 161.621 65.2291 161.665C65.5327 161.694 65.8364 161.694 66.14 161.727C66.5607 161.771 67.0655 161.775 67.0911 162.349C67.124 163.045 66.5497 163.042 66.0668 163.096C65.9461 163.111 65.8254 163.118 65.701 163.118C64.8889 163.118 64.2524 163.287 64.2926 164.323C64.3292 165.297 64.9986 165.286 65.69 165.345C66.1948 165.389 67.0106 165.158 67.0472 165.88C67.0947 166.725 66.2387 166.605 65.6644 166.649C62.9281 166.854 62.8477 166.736 62.8477 162.76Z" fill="url(#paint15_linear_181_4339)"/>
<path d="M102.33 162.675C102.33 162.25 102.327 161.822 102.33 161.397C102.341 158.944 103.329 158.219 105.74 158.867C106.182 158.988 106.599 159.145 106.537 159.676C106.482 160.13 106.051 160.156 105.685 160.185C105.381 160.211 105.077 160.207 104.774 160.233C104.335 160.269 103.896 160.335 103.867 160.91C103.837 161.478 104.236 161.617 104.693 161.665C104.876 161.687 105.059 161.683 105.238 161.705C105.762 161.767 106.501 161.654 106.449 162.441C106.402 163.188 105.666 163.085 105.147 163.093C103.925 163.115 103.435 163.675 103.881 164.836C104.126 165.477 104.81 165.264 105.33 165.338C105.784 165.403 106.475 165.235 106.497 165.894C106.522 166.656 105.787 166.579 105.264 166.634C102.692 166.909 102.341 166.583 102.334 163.95C102.33 163.529 102.33 163.1 102.33 162.675Z" fill="url(#paint16_linear_181_4339)"/>
<path d="M92.0582 158.783C92.7057 158.827 93.2727 158.772 93.7812 158.922C94.4799 159.127 94.6372 159.896 93.9971 160.053C92.4643 160.434 92.874 161.54 92.8228 162.489C92.7716 163.455 92.8045 164.426 92.7826 165.393C92.7716 165.891 92.724 166.418 92.0217 166.367C91.4327 166.323 91.44 165.836 91.429 165.418C91.4034 164.389 91.429 163.36 91.3888 162.331C91.3522 161.427 91.6815 160.405 90.2365 160.072C89.5158 159.907 89.7061 159.171 90.3682 158.951C90.9206 158.772 91.5571 158.827 92.0582 158.783Z" fill="url(#paint17_linear_181_4339)"/>
<path d="M157.487 135.134C158.106 135.189 158.53 135.529 158.552 136.155C158.574 136.818 158.263 137.371 157.542 137.463C156.873 137.547 156.529 137.144 156.492 136.492C156.452 135.778 156.811 135.346 157.487 135.134Z" fill="url(#paint18_linear_181_4339)"/>
<path d="M60.28 32.5362C60.1117 32.5106 59.9398 32.4849 59.7715 32.4556C60.4482 30.903 61.3042 29.4602 62.42 28.1638C62.0395 29.7861 61.2055 31.1813 60.28 32.5362Z" fill="url(#paint19_linear_181_4339)"/>
<path d="M63.1147 26.7099C63.2172 26.5745 63.3196 26.4353 63.422 26.2998C63.4952 26.3621 63.6415 26.4536 63.6305 26.4756C63.5574 26.6294 63.455 26.7685 63.3635 26.9114C63.2867 26.8528 63.2135 26.7905 63.1147 26.7099Z" fill="url(#paint20_linear_181_4339)"/>
<path d="M76.7233 11.9194C76.6868 12.3699 76.3648 12.5383 75.999 12.6701L76.0283 12.6994C76.0868 12.2746 76.3868 12.0806 76.7526 11.9524L76.7233 11.9194Z" fill="url(#paint21_linear_181_4339)"/>
<path d="M64.2086 25.2124C64.2232 25.2563 64.2415 25.2966 64.2561 25.3406C64.1976 25.3149 64.1391 25.2893 64.0806 25.2673C64.1245 25.249 64.1647 25.2307 64.2086 25.2124Z" fill="url(#paint22_linear_181_4339)"/>
<path d="M76.749 11.9487C76.9173 11.6594 77.1733 11.5532 77.4952 11.5935L77.4733 11.5715C77.305 11.8645 77.0526 11.978 76.7197 11.9194C76.7234 11.9194 76.749 11.9487 76.749 11.9487Z" fill="url(#paint23_linear_181_4339)"/>
<path d="M81.8849 55.9839C82.1666 56.189 82.5909 56.4856 82.28 56.7895C81.8739 57.1813 81.5484 56.7968 81.3545 56.3794C81.5337 56.2439 81.7093 56.1121 81.8849 55.9839Z" fill="url(#paint24_linear_181_4339)"/>
<path d="M79.1229 58.2434C78.8156 58.009 78.5559 57.7453 78.5742 57.3169C78.7973 57.3462 79.0168 57.3755 79.2399 57.4048C79.2765 57.6172 79.3131 57.8296 79.3497 58.042C79.2692 58.1079 79.196 58.1738 79.1229 58.2434Z" fill="url(#paint25_linear_181_4339)"/>
<path d="M80.151 49.916C80.3339 50.0955 80.4473 50.3115 80.2315 50.5129C80.1839 50.5569 79.9498 50.3994 79.7998 50.3335C79.9169 50.198 80.0339 50.0588 80.151 49.916Z" fill="url(#paint26_linear_181_4339)"/>
<path d="M79.3462 58.0417C79.4011 58.1223 79.4559 58.2029 79.5108 58.2834C79.3828 58.2688 79.2547 58.2541 79.123 58.2395C79.1962 58.1736 79.2694 58.1077 79.3462 58.0417Z" fill="url(#paint27_linear_181_4339)"/>
<path d="M134.653 163.697C134.434 165.411 134.123 167.088 132.499 168.743L134.653 163.697Z" fill="url(#paint28_linear_181_4339)"/>
<path d="M121.107 139.704C121.261 139.645 121.506 139.499 121.554 139.546C121.762 139.752 121.663 139.982 121.484 140.176C121.36 140.019 121.235 139.861 121.107 139.704Z" fill="url(#paint29_linear_181_4339)"/>
<path d="M110.265 145.893C110.115 145.947 109.881 146.094 109.826 146.046C109.621 145.856 109.723 145.633 109.877 145.438C110.009 145.589 110.137 145.739 110.265 145.893Z" fill="url(#paint30_linear_181_4339)"/>
<path d="M39.4434 165.334L39.5212 165.416L39.4434 165.334Z" fill="url(#paint31_linear_181_4339)"/>
<path d="M39.4434 165.334C39.4763 165.301 39.5092 165.272 39.5421 165.239C39.5677 165.264 39.5897 165.294 39.6153 165.319C39.5824 165.349 39.5458 165.378 39.5165 165.411C39.5202 165.415 39.4434 165.334 39.4434 165.334Z" fill="url(#paint32_linear_181_4339)"/>
<path d="M122.186 64.2598C122.091 64.2085 122.004 64.1572 121.912 64.106C122.007 64.0584 122.099 63.9778 122.194 63.9741C122.325 63.9705 122.545 63.9229 122.494 64.1755C122.483 64.2232 122.296 64.2341 122.186 64.2598Z" fill="url(#paint33_linear_181_4339)"/>
<defs>
<linearGradient id="paint0_linear_181_4339" x1="1.26683" y1="126.887" x2="15.3997" y2="144.894" gradientUnits="userSpaceOnUse">
<stop stop-color="#4F14A0"/>
<stop offset="1" stop-color="#8066FF"/>
</linearGradient>
<linearGradient id="paint1_linear_181_4339" x1="8.30681" y1="118.785" x2="13.4633" y2="129.091" gradientUnits="userSpaceOnUse">
<stop stop-color="#4F14A0"/>
<stop offset="1" stop-color="#8066FF"/>
</linearGradient>
<linearGradient id="paint2_linear_181_4339" x1="68.5913" y1="-1.3846e-06" x2="121.094" y2="76.8852" gradientUnits="userSpaceOnUse">
<stop stop-color="#4F14A0"/>
<stop offset="1" stop-color="#8066FF"/>
</linearGradient>
<linearGradient id="paint3_linear_181_4339" x1="39.1877" y1="56.167" x2="74.0553" y2="122.073" gradientUnits="userSpaceOnUse">
<stop stop-color="#4F14A0"/>
<stop offset="1" stop-color="#8066FF"/>
</linearGradient>
<linearGradient id="paint4_linear_181_4339" x1="58.0737" y1="114.773" x2="82.6678" y2="191.916" gradientUnits="userSpaceOnUse">
<stop stop-color="#4F14A0"/>
<stop offset="1" stop-color="#8066FF"/>
</linearGradient>
<linearGradient id="paint5_linear_181_4339" x1="6.65551" y1="134.936" x2="36.6612" y2="180.72" gradientUnits="userSpaceOnUse">
<stop stop-color="#4F14A0"/>
<stop offset="1" stop-color="#8066FF"/>
</linearGradient>
<linearGradient id="paint6_linear_181_4339" x1="51.8043" y1="32.4519" x2="73.4552" y2="38.4181" gradientUnits="userSpaceOnUse">
<stop stop-color="#4F14A0"/>
<stop offset="1" stop-color="#8066FF"/>
</linearGradient>
<linearGradient id="paint7_linear_181_4339" x1="135.072" y1="21.6711" x2="148.207" y2="64.1253" gradientUnits="userSpaceOnUse">
<stop stop-color="#4F14A0"/>
<stop offset="1" stop-color="#8066FF"/>
</linearGradient>
<linearGradient id="paint8_linear_181_4339" x1="116.317" y1="56.3542" x2="122.026" y2="77.888" gradientUnits="userSpaceOnUse">
<stop stop-color="#4F14A0"/>
<stop offset="1" stop-color="#8066FF"/>
</linearGradient>
<linearGradient id="paint9_linear_181_4339" x1="82.5232" y1="3.13208" x2="90.5157" y2="36.5472" gradientUnits="userSpaceOnUse">
<stop stop-color="#4F14A0"/>
<stop offset="1" stop-color="#8066FF"/>
</linearGradient>
<linearGradient id="paint10_linear_181_4339" x1="153.209" y1="138.562" x2="165.775" y2="164.225" gradientUnits="userSpaceOnUse">
<stop stop-color="#4F14A0"/>
<stop offset="1" stop-color="#8066FF"/>
</linearGradient>
<linearGradient id="paint11_linear_181_4339" x1="16.6799" y1="120.284" x2="27.6999" y2="132.004" gradientUnits="userSpaceOnUse">
<stop stop-color="#4F14A0"/>
<stop offset="1" stop-color="#8066FF"/>
</linearGradient>
<linearGradient id="paint12_linear_181_4339" x1="75.5409" y1="159.071" x2="80.8961" y2="166.047" gradientUnits="userSpaceOnUse">
<stop stop-color="#4F14A0"/>
<stop offset="1" stop-color="#8066FF"/>
</linearGradient>
<linearGradient id="paint13_linear_181_4339" x1="115.111" y1="158.822" x2="120.803" y2="163.648" gradientUnits="userSpaceOnUse">
<stop stop-color="#4F14A0"/>
<stop offset="1" stop-color="#8066FF"/>
</linearGradient>
<linearGradient id="paint14_linear_181_4339" x1="48.8277" y1="158.644" x2="54.9438" y2="165.572" gradientUnits="userSpaceOnUse">
<stop stop-color="#4F14A0"/>
<stop offset="1" stop-color="#8066FF"/>
</linearGradient>
<linearGradient id="paint15_linear_181_4339" x1="63.1548" y1="158.625" x2="68.9686" y2="162.923" gradientUnits="userSpaceOnUse">
<stop stop-color="#4F14A0"/>
<stop offset="1" stop-color="#8066FF"/>
</linearGradient>
<linearGradient id="paint16_linear_181_4339" x1="102.634" y1="158.642" x2="108.43" y2="162.901" gradientUnits="userSpaceOnUse">
<stop stop-color="#4F14A0"/>
<stop offset="1" stop-color="#8066FF"/>
</linearGradient>
<linearGradient id="paint17_linear_181_4339" x1="90.1115" y1="158.783" x2="95.7538" y2="163.622" gradientUnits="userSpaceOnUse">
<stop stop-color="#4F14A0"/>
<stop offset="1" stop-color="#8066FF"/>
</linearGradient>
<linearGradient id="paint18_linear_181_4339" x1="156.639" y1="135.134" x2="158.359" y2="137.269" gradientUnits="userSpaceOnUse">
<stop stop-color="#4F14A0"/>
<stop offset="1" stop-color="#8066FF"/>
</linearGradient>
<linearGradient id="paint19_linear_181_4339" x1="59.9632" y1="28.1638" x2="63.2116" y2="30.9332" gradientUnits="userSpaceOnUse">
<stop stop-color="#4F14A0"/>
<stop offset="1" stop-color="#8066FF"/>
</linearGradient>
<linearGradient id="paint20_linear_181_4339" x1="63.1521" y1="26.2998" x2="63.6055" y2="26.8386" gradientUnits="userSpaceOnUse">
<stop stop-color="#4F14A0"/>
<stop offset="1" stop-color="#8066FF"/>
</linearGradient>
<linearGradient id="paint21_linear_181_4339" x1="76.0536" y1="11.9194" x2="76.6138" y2="12.6812" gradientUnits="userSpaceOnUse">
<stop stop-color="#4F14A0"/>
<stop offset="1" stop-color="#8066FF"/>
</linearGradient>
<linearGradient id="paint22_linear_181_4339" x1="64.0933" y1="25.2124" x2="64.1721" y2="25.3644" gradientUnits="userSpaceOnUse">
<stop stop-color="#4F14A0"/>
<stop offset="1" stop-color="#8066FF"/>
</linearGradient>
<linearGradient id="paint23_linear_181_4339" x1="76.7758" y1="11.5715" x2="76.9511" y2="12.0786" gradientUnits="userSpaceOnUse">
<stop stop-color="#4F14A0"/>
<stop offset="1" stop-color="#8066FF"/>
</linearGradient>
<linearGradient id="paint24_linear_181_4339" x1="81.4294" y1="55.9839" x2="82.1017" y2="56.9944" gradientUnits="userSpaceOnUse">
<stop stop-color="#4F14A0"/>
<stop offset="1" stop-color="#8066FF"/>
</linearGradient>
<linearGradient id="paint25_linear_181_4339" x1="78.6294" y1="57.3169" x2="79.3171" y2="58.1281" gradientUnits="userSpaceOnUse">
<stop stop-color="#4F14A0"/>
<stop offset="1" stop-color="#8066FF"/>
</linearGradient>
<linearGradient id="paint26_linear_181_4339" x1="79.8396" y1="49.916" x2="80.281" y2="50.4806" gradientUnits="userSpaceOnUse">
<stop stop-color="#4F14A0"/>
<stop offset="1" stop-color="#8066FF"/>
</linearGradient>
<linearGradient id="paint27_linear_181_4339" x1="79.1511" y1="58.0417" x2="79.2858" y2="58.3458" gradientUnits="userSpaceOnUse">
<stop stop-color="#4F14A0"/>
<stop offset="1" stop-color="#8066FF"/>
</linearGradient>
<linearGradient id="paint28_linear_181_4339" x1="132.654" y1="163.697" x2="136.007" y2="165.712" gradientUnits="userSpaceOnUse">
<stop stop-color="#4F14A0"/>
<stop offset="1" stop-color="#8066FF"/>
</linearGradient>
<linearGradient id="paint29_linear_181_4339" x1="121.148" y1="139.537" x2="121.618" y2="140.12" gradientUnits="userSpaceOnUse">
<stop stop-color="#4F14A0"/>
<stop offset="1" stop-color="#8066FF"/>
</linearGradient>
<linearGradient id="paint30_linear_181_4339" x1="109.751" y1="145.438" x2="110.203" y2="146.009" gradientUnits="userSpaceOnUse">
<stop stop-color="#4F14A0"/>
<stop offset="1" stop-color="#8066FF"/>
</linearGradient>
<linearGradient id="paint31_linear_181_4339" x1="39.449" y1="165.334" x2="39.5079" y2="165.413" gradientUnits="userSpaceOnUse">
<stop stop-color="#4F14A0"/>
<stop offset="1" stop-color="#8066FF"/>
</linearGradient>
<linearGradient id="paint32_linear_181_4339" x1="39.4558" y1="165.239" x2="39.5783" y2="165.411" gradientUnits="userSpaceOnUse">
<stop stop-color="#4F14A0"/>
<stop offset="1" stop-color="#8066FF"/>
</linearGradient>
<linearGradient id="paint33_linear_181_4339" x1="121.955" y1="63.9683" x2="122.092" y2="64.3587" gradientUnits="userSpaceOnUse">
<stop stop-color="#4F14A0"/>
<stop offset="1" stop-color="#8066FF"/>
</linearGradient>
</defs>
</svg>
