<svg width="21" height="15" viewBox="0 0 21 15" fill="none" xmlns="http://www.w3.org/2000/svg">
<path d="M20.9846 1.5054C20.9846 1.4814 21.0011 1.45805 21 1.43433L14.5915 7.60925L20.9923 13.5869C20.9961 13.5442 20.9846 13.5012 20.9846 13.4576V1.5054Z" fill="white"/>
<path d="M13.6132 8.55957L10.9971 11.0766C10.8647 11.204 10.6937 11.2679 10.5226 11.2679C10.3551 11.2679 10.1876 11.2067 10.0561 11.0842L7.44713 8.653L1.00452 14.863C1.16117 14.9193 1.32932 14.963 1.50541 14.963H19.54C19.8015 14.963 20.0467 14.8833 20.2599 14.7645L13.6132 8.55957Z" fill="white"/>
<path d="M10.5152 9.64121L20.2955 0.219973C20.074 0.0883174 19.8163 0 19.54 0H1.50545C1.14571 0 0.816067 0.139684 0.559326 0.352723L10.5152 9.64121Z" fill="white"/>
<path d="M0 1.73486V13.4574C0 13.5919 0.0309294 13.7217 0.0645046 13.8457L6.4272 7.71856L0 1.73486Z" fill="white"/>
</svg>
