<svg width="21" height="15" viewBox="0 0 21 15" fill="none" xmlns="http://www.w3.org/2000/svg">
<path d="M20.9844 1.5054C20.9844 1.4814 21.0009 1.45805 20.9998 1.43433L14.5913 7.60925L20.9921 13.5869C20.9959 13.5442 20.9844 13.5012 20.9844 13.4576V1.5054Z" fill="#8D95AF" fill-opacity="0.48"/>
<path d="M13.6131 8.55957L10.997 11.0766C10.8646 11.204 10.6936 11.2679 10.5225 11.2679C10.355 11.2679 10.1875 11.2067 10.056 11.0842L7.44701 8.653L1.00439 14.863C1.16105 14.9193 1.3292 14.963 1.50529 14.963H19.5399C19.8013 14.963 20.0466 14.8833 20.2598 14.7645L13.6131 8.55957Z" fill="#8D95AF" fill-opacity="0.48"/>
<path d="M10.5155 9.64121L20.2957 0.219973C20.0743 0.0883174 19.8165 0 19.5403 0H1.5057C1.14595 0 0.816312 0.139684 0.55957 0.352723L10.5155 9.64121Z" fill="#8D95AF" fill-opacity="0.48"/>
<path d="M0 1.73486V13.4574C0 13.5919 0.0309294 13.7217 0.0645046 13.8457L6.4272 7.71856L0 1.73486Z" fill="#8D95AF" fill-opacity="0.48"/>
</svg>
